<?xml version="1.0" standalone="no"?>
<!DOCTYPE svg PUBLIC "-//W3C//DTD SVG 20010904//EN"
 "http://www.w3.org/TR/2001/REC-SVG-20010904/DTD/svg10.dtd">
<svg version="1.0" xmlns="http://www.w3.org/2000/svg"
 width="609.000000pt" height="468.000000pt" viewBox="0 0 609.000000 468.000000"
 preserveAspectRatio="xMidYMid meet">

<g transform="translate(0.000000,468.000000) scale(0.100000,-0.100000)"
fill="#000000" stroke="none">
<path d="M2702 4107 c-41 -24 -62 -67 -62 -129 l0 -58 -51 0 c-61 0 -29 31
-339 -324 -124 -141 -229 -267 -234 -280 -8 -21 27 -88 254 -488 145 -254 270
-471 278 -480 13 -15 38 -18 186 -20 l171 -3 3 -100 c2 -87 6 -103 27 -131 25
-32 56 -47 127 -58 24 -5 47 -18 67 -42 54 -61 39 -164 -30 -200 -39 -20 -88
-18 -126 6 -42 25 -59 54 -68 112 -15 111 -136 155 -213 78 -36 -36 -44 -72
-32 -146 23 -139 136 -268 268 -303 191 -52 401 58 473 249 29 78 24 193 -13
273 -32 68 -116 156 -176 182 -37 17 -42 23 -42 52 l0 33 175 0 175 0 23 38
c13 20 41 69 62 107 21 39 58 103 82 143 24 41 43 75 43 78 0 2 19 36 43 76
106 180 297 526 297 539 0 8 -61 84 -136 169 -75 85 -162 184 -193 219 -31 35
-61 69 -66 75 -6 6 -37 41 -69 79 -58 67 -59 67 -111 67 l-52 0 -6 66 c-4 54
-10 71 -33 95 -52 55 -135 47 -174 -16 -14 -22 -20 -50 -20 -89 l0 -56 -170 0
-170 0 0 38 c0 55 -17 106 -44 131 -29 27 -92 37 -124 18z m78 -165 c0 -47 5
-83 12 -90 9 -9 76 -12 239 -12 194 0 230 2 243 16 12 11 16 36 16 94 0 63 3
79 16 84 32 12 44 -13 44 -93 0 -47 5 -82 12 -89 7 -7 40 -12 77 -12 l66 -1
72 -82 c39 -45 80 -91 90 -103 77 -89 132 -151 151 -173 13 -14 47 -53 75 -85
29 -33 58 -65 66 -73 7 -8 11 -22 8 -32 -2 -11 -69 -131 -147 -268 -79 -136
-152 -264 -163 -283 -10 -19 -57 -101 -104 -182 l-85 -148 -182 0 c-128 0
-186 -4 -194 -12 -19 -19 -16 -173 4 -192 8 -9 21 -16 27 -16 22 0 92 -42 129
-77 84 -81 107 -226 54 -333 -58 -117 -148 -174 -271 -174 -159 0 -284 110
-302 266 -6 54 7 78 42 78 31 0 43 -18 55 -79 35 -187 265 -238 374 -83 86
122 11 299 -135 318 -81 11 -83 14 -89 161 l-5 128 -187 3 -187 2 -36 61 c-19
33 -35 63 -35 65 0 3 -8 18 -18 32 -11 15 -33 52 -49 82 -37 67 -96 171 -151
267 -23 39 -51 89 -63 110 -80 145 -124 222 -140 245 -11 15 -19 31 -19 35 0
4 31 42 68 84 37 41 143 161 236 267 l169 192 63 0 c85 0 94 10 94 110 0 82 8
96 43 78 14 -7 17 -22 17 -86z"/>
<path d="M2581 3765 c-58 -50 -101 39 428 -884 83 -145 151 -265 151 -268 0
-3 9 -16 20 -31 l21 -26 -31 -12 c-31 -14 -39 -41 -18 -62 8 -8 55 -12 144
-12 l133 0 20 29 c12 16 21 31 21 34 0 3 23 43 50 90 28 47 50 93 50 102 0 17
-22 60 -95 185 -52 89 -107 185 -200 350 -94 167 -152 267 -197 343 -15 26
-28 49 -28 52 0 11 -64 111 -78 123 -11 8 -65 12 -188 12 -170 0 -173 0 -203
-25z m541 -400 c104 -181 194 -340 201 -352 7 -12 45 -79 85 -148 39 -69 72
-129 72 -134 0 -10 -75 -148 -91 -168 -13 -15 -109 -18 -109 -3 0 5 -14 33
-31 62 -45 75 -67 114 -109 188 -20 36 -48 84 -63 107 -15 24 -27 45 -27 48 0
2 -18 34 -40 70 -22 36 -40 68 -40 71 0 3 -8 18 -19 32 -10 15 -31 50 -46 77
-15 28 -54 97 -87 155 -34 58 -79 137 -101 175 -22 39 -51 87 -64 107 -12 21
-23 40 -23 43 0 3 68 4 151 3 l152 -3 189 -330z"/>
<path d="M3186 3777 c-34 -25 -8 -62 55 -81 9 -2 107 -164 219 -359 124 -217
211 -357 221 -360 32 -8 46 11 162 223 16 30 34 59 38 65 21 22 4 53 -83 153
-51 59 -105 120 -119 137 -14 16 -68 76 -118 133 l-93 102 -132 0 c-94 0 -137
-4 -150 -13z m287 -114 c115 -126 320 -360 323 -369 5 -12 -88 -185 -101 -187
-8 -2 -56 73 -114 177 -63 113 -111 196 -169 297 -34 59 -62 110 -62 113 0 3
20 6 45 6 38 0 49 -5 78 -37z"/>
<path d="M2323 3474 c-99 -104 -143 -161 -143 -184 0 -12 78 -160 174 -328 96
-169 183 -323 194 -342 92 -165 67 -150 253 -150 149 0 159 1 169 20 9 17 6
31 -18 73 -64 115 -194 342 -201 352 -5 5 -22 35 -38 65 -17 30 -65 116 -108
190 -43 74 -86 151 -97 170 -11 19 -29 49 -39 66 l-19 32 24 6 c14 3 28 16 32
28 10 32 -27 58 -84 58 -43 0 -50 -4 -99 -56z m82 -109 c13 -22 122 -213 244
-423 121 -211 221 -386 221 -388 0 -2 -42 -4 -94 -4 -65 0 -96 4 -100 13 -3 6
-19 35 -36 62 -17 28 -42 73 -56 100 -15 28 -34 61 -44 75 -9 14 -31 50 -47
80 -31 56 -132 235 -171 303 -12 20 -31 53 -42 72 l-19 34 52 61 c29 33 56 59
61 57 4 -1 19 -21 31 -42z"/>
<path d="M497 1122 l-37 -38 0 -95 0 -95 38 -36 c34 -35 42 -37 107 -40 l70
-3 3 -53 c4 -62 -8 -82 -50 -82 -46 0 -68 17 -68 50 0 29 -1 30 -50 30 l-50 0
0 -53 c0 -48 3 -56 38 -90 38 -37 38 -37 123 -37 l85 0 37 38 37 38 0 94 c-1
94 -1 95 -35 133 -34 36 -37 37 -105 37 -65 0 -70 2 -76 23 -3 13 -4 41 -2 63
l3 39 58 3 57 3 0 -41 0 -40 50 0 50 0 0 58 c0 54 -3 61 -38 95 -38 37 -38 37
-123 37 l-85 0 -37 -38z"/>
<path d="M880 1099 l0 -61 60 4 60 4 0 -181 c0 -115 -4 -185 -11 -192 -6 -6
-9 -28 -7 -49 l3 -39 69 -3 69 -3 -9 88 c-5 48 -9 153 -9 233 l0 145 63 -3 63
-4 -3 59 -3 58 -172 3 -173 2 0 -61z"/>
<path d="M1327 1153 c-11 -10 -8 -81 3 -88 14 -9 14 -385 -1 -385 -6 0 -9 -19
-7 -47 l3 -48 68 -3 69 -3 -6 58 c-4 32 -8 81 -9 108 l-2 50 37 3 c36 3 37 2
48 -40 6 -24 13 -51 16 -60 3 -10 0 -18 -6 -18 -7 0 -10 -17 -8 -47 l3 -48 73
-3 72 -3 0 42 c0 23 -6 50 -13 58 -8 9 -22 45 -31 80 -18 63 -17 63 4 86 21
22 22 33 21 132 l-2 108 -37 38 -36 37 -126 0 c-70 0 -130 -3 -133 -7z m231
-175 l-3 -73 -57 -3 -58 -3 0 76 0 75 60 0 61 0 -3 -72z"/>
<path d="M1807 1122 l-37 -38 0 -215 0 -215 38 -37 38 -37 90 0 90 0 42 43 42
43 0 204 0 204 -42 43 -42 43 -91 0 -91 0 -37 -38z m193 -251 c0 -197 2 -191
-65 -191 -67 0 -65 -6 -65 191 l0 179 65 0 65 0 0 -179z"/>
<path d="M2190 1114 c0 -26 6 -55 14 -63 7 -9 32 -70 56 -135 l42 -120 -7
-108 -7 -108 67 0 66 0 -6 113 -7 112 47 128 c26 70 51 127 56 127 5 0 9 23 9
51 l0 50 -46 -3 c-51 -3 -43 9 -98 -141 -10 -27 -21 -45 -24 -42 -4 3 -20 45
-37 93 l-31 87 -47 3 -47 3 0 -47z"/>
<path d="M2600 1116 c0 -25 5 -48 10 -51 6 -4 10 -80 10 -196 0 -119 -4 -189
-10 -189 -5 0 -10 -22 -10 -50 l0 -50 70 0 70 0 0 48 c0 26 -5 53 -10 58 -7 7
-10 49 -8 105 l3 94 25 -62 25 -63 41 0 42 0 23 63 24 62 3 -100 c2 -63 -1
-101 -8 -103 -5 -2 -10 -26 -10 -53 l0 -49 70 0 70 0 0 50 c0 28 -4 50 -10 50
-6 0 -10 70 -10 190 0 120 4 190 10 190 6 0 10 23 10 50 l0 50 -64 0 -64 0
-37 -97 c-21 -54 -41 -102 -45 -106 -4 -5 -26 38 -48 95 l-40 103 -66 3 -66 3
0 -45z"/>
<path d="M3167 1122 l-37 -38 0 -215 0 -215 38 -37 38 -37 90 0 90 0 42 43 42
43 0 204 0 204 -42 43 -42 43 -91 0 -91 0 -37 -38z m193 -251 c0 -197 2 -191
-65 -191 -67 0 -65 -5 -65 184 0 95 3 176 7 179 3 4 33 7 65 7 l58 0 0 -179z"/>
<path d="M3567 1153 c-11 -10 -8 -81 3 -88 14 -9 14 -385 -1 -385 -6 0 -9 -19
-7 -47 l3 -48 143 -3 142 -3 0 62 0 61 -57 -6 c-32 -3 -69 -7 -83 -8 l-25 -3
-3 179 c-2 118 0 182 7 189 6 6 11 33 11 59 l0 48 -63 0 c-35 0 -67 -3 -70 -7z"/>
<path d="M3947 1153 c-11 -10 -8 -81 3 -88 14 -9 13 -378 -1 -392 -6 -6 -9
-28 -7 -49 l3 -39 134 -3 135 -3 43 43 43 42 0 206 0 206 -43 42 -43 42 -130
0 c-72 0 -134 -3 -137 -7z m243 -283 l0 -180 -23 -6 c-13 -3 -41 -4 -63 -2
l-39 3 -2 175 c-1 96 1 178 3 182 3 4 32 8 65 8 l59 0 0 -180z"/>
<path d="M4432 1117 l-42 -43 0 -205 0 -205 43 -42 43 -42 90 0 90 0 37 38 37
38 0 215 0 215 -38 37 -38 37 -90 0 -90 0 -42 -43z m198 -246 c0 -197 2 -191
-65 -191 -67 0 -65 -6 -65 191 l0 179 65 0 65 0 0 -179z"/>
<path d="M4823 1108 c5 -42 76 -400 102 -505 5 -21 11 -23 75 -23 57 0 70 3
74 18 3 9 23 111 46 227 22 116 45 218 50 227 6 10 10 38 10 63 l0 45 -48 0
-49 0 -10 -47 c-6 -27 -23 -112 -39 -190 -16 -79 -31 -143 -35 -143 -3 0 -23
86 -45 190 l-38 190 -49 0 -49 0 5 -52z"/>
<path d="M5327 1153 c-11 -10 -8 -78 3 -89 11 -11 -55 -362 -71 -378 -5 -6 -9
-32 -9 -58 l0 -48 50 0 c54 0 50 -5 68 85 l8 40 56 3 56 3 14 -63 14 -63 48
-3 48 -3 -4 53 c-3 29 -21 128 -41 219 -30 138 -35 177 -30 237 l6 72 -105 0
c-58 0 -108 -3 -111 -7z m138 -320 c5 -21 2 -23 -30 -23 -39 0 -39 2 -25 70
22 100 22 99 36 35 8 -33 16 -70 19 -82z"/>
</g>
</svg>
